<svg version="1.1" xmlns="http://www.w3.org/2000/svg" xmlns:xlink="http://www.w3.org/1999/xlink" width="48" height="48"><defs><linearGradient x1="14.22989" y1="14.22989" x2="36.59854" y2="36.59854" gradientUnits="userSpaceOnUse" id="color-1"><stop offset="0" stop-color="#000000" stop-opacity="0.3"></stop><stop offset="1" stop-color="#000000" stop-opacity="0"></stop></linearGradient><filter id="dropshadow-base"><feColorMatrix type="matrix" values="0 0 0 0 0  0 0 0 0 0  0 0 0 0 0  0 0 0 .8 0"></feColorMatrix> <feOffset dx="0" dy="1"></feOffset> <feGaussianBlur stdDeviation="1"></feGaussianBlur> <feComposite in="SourceGraphic"></feComposite></filter><filter id="dropshadow-banner" x="-10%" y="-10%" width="120%" height="130%"><feColorMatrix type="matrix" values="0 0 0 0 0  0 0 0 0 0  0 0 0 0 0  0 0 0 .4 0"></feColorMatrix> <feOffset dx="0" dy="1"></feOffset> <feGaussianBlur stdDeviation="0.5"></feGaussianBlur> <feComposite in="SourceGraphic"></feComposite></filter></defs><g fill="none" fill-rule="nonzero" stroke="none" stroke-width="none" stroke-linecap="butt" stroke-linejoin="miter" stroke-miterlimit="10" stroke-dasharray="" stroke-dashoffset="0" font-family="none" font-weight="none" font-size="none" text-anchor="none" style="mix-blend-mode: normal"><path d="M2,24c0,-12.15026 9.84974,-22 22,-22c12.15026,0 22,9.84974 22,22c0,12.15026 -9.84974,22 -22,22c-12.15026,0 -22,-9.84974 -22,-22z" id="base 1 9" fill="#5d478b" stroke-width="1"></path><path d="M19.01234,25.85142l-1.95402,0l1.95402,1.95402l0,0.96362l3.03364,-3.79205l2.82843,2.82843l0.34601,0.43222l1.71062,-2.28363l2.82843,2.82843l-0.80872,1.07962h0.91132l1.95402,1.95402v-6.83908l1.95402,0l-1.95402,-1.95402l0,-4.01065h-4.01065l-1.95402,-1.95402v1.95402h-6.83908zM14.22989,23.02299v-6.83908c0,-1.0796 0.87442,-1.95402 1.95402,-1.95402h6.83908l1.95402,1.95402v-1.95402h6.83908c0.5398,0 1.0283,0.21861 1.38186,0.57216l2.82843,2.82843l0,0c0.35356,0.35356 0.57216,0.84206 0.57216,1.38186v6.83908l-1.95402,0l1.95402,1.95402v6.83908c0,1.0796 -0.87442,1.95402 -1.95402,1.95402h-6.83908l-1.95402,-1.95402v1.95402h-6.83908c-0.5398,0 -1.0283,-0.21861 -1.38186,-0.57216l-2.82843,-2.82843c-0.35356,-0.35356 -0.57216,-0.84206 -0.57216,-1.38186v-6.83908l1.95402,0zM20.09196,31.81609l-1.07962,-1.07962v1.07962zM17.05832,33.77011h1.07962l-1.07962,-1.07962zM24.97701,32.69049l-1.07962,0l1.07962,1.07962zM33.77011,18.13793v-1.07962l-1.07962,0zM26.20804,29.86207l-1.26034,-1.26034l-0.35528,-0.4438l-1.36332,1.70415zM30.24797,24.87441c-0.40546,0 -0.77184,-0.16365 -1.03685,-0.42866l-2.82843,-2.82843c-0.26501,-0.26501 -0.42866,-0.63139 -0.42866,-1.03685c0,-0.81092 0.6546,-1.46552 1.46552,-1.46552c0.40546,0 0.77184,0.16365 1.03685,0.42866l2.82843,2.82843c0.26501,0.26501 0.42866,0.63139 0.42866,1.03685c0,0.81092 -0.6546,1.46552 -1.46552,1.46552z" fill="url(#color-1)" stroke-width="1"></path><path d="M16.18391,16.18391h6.83908v-1.95402h-6.83908c-1.0796,0 -1.95402,0.87442 -1.95402,1.95402v6.83908h1.95402zM22.04598,24.97701l-3.90804,4.88505h11.72413l-2.93103,-3.90804l-1.98333,2.6477zM28.88505,20.58046c0,-0.81092 -0.6546,-1.46552 -1.46552,-1.46552c-0.81092,0 -1.46552,0.6546 -1.46552,1.46552c0,0.81092 0.6546,1.46552 1.46552,1.46552c0.81092,0 1.46552,-0.6546 1.46552,-1.46552zM31.81609,14.22989h-6.83908v1.95402h6.83908v6.83908h1.95402v-6.83908c0,-1.0796 -0.87442,-1.95402 -1.95402,-1.95402zM31.81609,31.81609h-6.83908v1.95402h6.83908c1.0796,0 1.95402,-0.87442 1.95402,-1.95402v-6.83908h-1.95402zM16.18391,24.97701h-1.95402v6.83908c0,1.0796 0.87442,1.95402 1.95402,1.95402h6.83908v-1.95402h-6.83908z" fill="none" stroke-width="0"></path><path d="M16.18391,23.02299h-1.95402v-6.83908c0,-1.0796 0.87442,-1.95402 1.95402,-1.95402h6.83908v1.95402h-6.83908zM24.9477,28.60172l1.98333,-2.6477l2.93103,3.90804h-11.72413l3.90804,-4.88505zM27.41954,22.04598c-0.81092,0 -1.46552,-0.6546 -1.46552,-1.46552c0,-0.81092 0.6546,-1.46552 1.46552,-1.46552c0.81092,0 1.46552,0.6546 1.46552,1.46552c0,0.81092 -0.6546,1.46552 -1.46552,1.46552zM33.77011,16.18391v6.83908h-1.95402v-6.83908h-6.83908v-1.95402h6.83908c1.0796,0 1.95402,0.87442 1.95402,1.95402zM31.81609,24.97701h1.95402v6.83908c0,1.0796 -0.87442,1.95402 -1.95402,1.95402h-6.83908v-1.95402h6.83908zM16.18391,31.81609h6.83908v1.95402h-6.83908c-1.0796,0 -1.95402,-0.87442 -1.95402,-1.95402v-6.83908h1.95402z" fill="#ffffff" stroke-width="0"></path><path d="M2,24c0,-12.15026 9.84974,-22 22,-22c12.15026,0 22,9.84974 22,22c0,12.15026 -9.84974,22 -22,22c-12.15026,0 -22,-9.84974 -22,-22z" id="base 1 5 1" fill="none" stroke-width="1"></path><path d="M2,24c0,-12.15026 9.84974,-22 22,-22c12.15026,0 22,9.84974 22,22c0,12.15026 -9.84974,22 -22,22c-12.15026,0 -22,-9.84974 -22,-22z" id="base 1 1 1" fill="none" stroke-width="1"></path><g fill="#000000" stroke-width="1" font-family="Roboto, sans-serif" font-weight="400" font-size="14" text-anchor="start"></g><rect x="2" y="2" width="44" height="22" fill="none" stroke-width="1"></rect><path d="M2,24v-22h44v22z" fill="none" stroke-width="1"></path><path d="M2,24v-22h44v22z" fill="none" stroke-width="1"></path><path d="M2,24v-22h44v22z" fill="none" stroke-width="1"></path><path d="M2,24v-22h44v22z" fill="none" stroke-width="1"></path><g fill="#000000" stroke-width="1" font-family="Roboto, sans-serif" font-weight="400" font-size="14" text-anchor="start"></g><rect x="2" y="2" width="44" height="22" fill="none" stroke-width="1"></rect><path d="M2,24v-22h44v22z" fill="none" stroke-width="1"></path><path d="M2,24v-22h44v22z" fill="none" stroke-width="1"></path><path d="M2,24v-22h44v22z" fill="none" stroke-width="1"></path><path d="M2,24v-22h44v22z" fill="none" stroke-width="1"></path></g></svg>